HIERARCHY
ROOT hip
{
	OFFSET 0.000000 0.000000 0.000000 
	CHANNELS 6 Xposition Yposition Zposition Xrotation Zrotation Yrotation
	JOINT abdomen
	{
		OFFSET 0.000000 3.402643 0.000000 
		CHANNELS 3 Xrotation Zrotation Yrotation
		JOINT chest
		{
			OFFSET 0.000000 8.438565 -0.680529 
			CHANNELS 3 Xrotation Zrotation Yrotation
			JOINT neck
			{
				OFFSET 0.000000 10.207942 -0.272212 
				CHANNELS 3 Xrotation Zrotation Yrotation
				JOINT head
				{
					OFFSET 0.000000 3.130431 0.000000 
					CHANNELS 3 Xrotation Zrotation Yrotation
					End Site
					{
						OFFSET 0.000000 3.130435 0.000000 
					}
				}
			}
			JOINT lCollar
			{
				OFFSET 3.470700 6.669187 -0.816635 
				CHANNELS 3 Yrotation Zrotation Xrotation
				JOINT lShldr
				{
					OFFSET 3.198488 0.000000 0.000000 
					CHANNELS 3 Zrotation Yrotation Xrotation
					JOINT lForeArm
					{
						OFFSET 10.139888 0.000000 0.000000 
						CHANNELS 3 Yrotation Zrotation Xrotation
						JOINT lHand
						{
							OFFSET 8.370511 0.000000 0.000000 
							CHANNELS 3 Zrotation Yrotation Xrotation
							End Site
							{
								OFFSET 4.083176 0.000000 0.000000 
							}
						}
					}
				}
			}
			JOINT rCollar
			{
				OFFSET -3.470700 6.669187 -0.816635 
				CHANNELS 3 Yrotation Zrotation Xrotation
				JOINT rShldr
				{
					OFFSET -3.198488 0.000000 0.000000 
					CHANNELS 3 Zrotation Yrotation Xrotation
					JOINT rForeArm
					{
						OFFSET -10.139888 0.000000 0.000000 
						CHANNELS 3 Yrotation Zrotation Xrotation
						JOINT rHand
						{
							OFFSET -8.370511 0.000000 0.000000 
							CHANNELS 3 Zrotation Yrotation Xrotation
							End Site
							{
								OFFSET -4.083176 0.000000 0.000000 
							}
						}
					}
				}
			}
		}
	}
	JOINT lThigh
	{
		OFFSET 5.308129 -1.633274 1.361059 
		CHANNELS 3 Xrotation Zrotation Yrotation
		JOINT lShin
		{
			OFFSET -2.041588 -20.007561 0.000000 
			CHANNELS 3 Xrotation Zrotation Yrotation
			JOINT lFoot
			{
				OFFSET 0.000000 -19.190928 -1.224953 
				CHANNELS 3 Xrotation Yrotation Zrotation
				End Site
				{
					OFFSET 0.000000 -2.449906 4.627600 
				}
			}
		}
	}
	JOINT rThigh
	{
		OFFSET -5.308129 -1.633274 1.361059 
		CHANNELS 3 Xrotation Zrotation Yrotation
		JOINT rShin
		{
			OFFSET 2.041588 -20.007561 0.000000 
			CHANNELS 3 Xrotation Zrotation Yrotation
			JOINT rFoot
			{
				OFFSET 0.000000 -19.190928 -1.224953 
				CHANNELS 3 Xrotation Yrotation Zrotation
				End Site
				{
					OFFSET 0.000000 -2.449906 4.627600 
				}
			}
		}
	}
}
MOTION
Frames: 11
Frame Time: 0.033333
0.078659 43.599243 0.402603 -0.656235 -4.404009 92.511185 0.000000 0.000000 0.000000 -1.661557 -2.352527 5.966603 12.009555 5.472548 0.358662 -11.226087 -4.842823 -19.389532 5.676109 30.000000 19.885727 -54.895931 -20.906202 -26.846855 -105.936424 -27.003235 -26.747440 7.147955 -9.624500 46.529724 -26.132284 -26.839664 11.232836 25.598667 11.221386 47.216518 122.992325 -57.006454 35.030617 11.233624 0.992466 -12.304241 -0.117995 8.454021 20.017200 62.106567 6.639145 -1.197757 5.397679 1.036965 -17.644672 -5.481772 3.032637 2.219203 18.711147 0.780374 0.840604 -9.813791 -4.828628 21.041924 
0.090881 43.594311 0.727798 -1.273391 -4.461793 92.686668 0.000000 0.000000 0.000000 -1.572989 -1.737627 6.092609 11.757294 4.571914 0.286470 -11.195449 -4.466708 -19.156063 7.848926 30.000000 18.401600 -54.762562 -20.676414 -26.919645 -105.595825 -27.741007 -26.961109 6.710176 -10.005657 46.656509 -25.256289 -28.195089 11.123755 26.345705 12.461287 47.312546 122.413712 -57.883175 34.807980 11.116964 0.771970 -12.293631 -4.725943 10.149642 20.465136 67.765671 7.796320 -1.138823 7.159934 3.214938 -17.273090 -3.677256 4.057410 2.466935 18.433664 0.630942 0.796628 -11.072001 -5.055698 20.923254 
0.061537 43.629353 0.964860 -1.400365 -4.266308 92.574615 0.000000 0.000000 0.000000 -1.123390 -1.415744 6.160563 11.681037 3.375125 0.202072 -11.245847 -3.766735 -18.436750 10.235489 30.000000 16.867802 -54.459766 -19.941839 -27.079329 -105.467529 -28.566723 -27.358007 6.344816 -10.440617 46.810638 -24.069044 -29.618166 11.198202 26.939106 14.350376 47.227955 121.399796 -59.100140 34.359791 11.110011 0.292612 -12.276046 -8.710187 10.984053 20.548035 71.312614 8.264168 -1.130591 7.762983 5.066069 -17.178020 -1.669416 4.519627 2.539770 18.194675 0.477859 0.744909 -12.235947 -4.812583 21.028601 
-0.000425 43.706707 1.118893 -1.116058 -4.042204 92.324585 0.000000 0.000000 0.000000 -0.576343 -1.396414 6.156620 11.599712 2.083627 0.109555 -11.366807 -3.020067 -17.507212 12.475508 30.000000 15.560497 -53.953018 -18.818720 -27.357309 -105.566414 -29.411098 -27.787067 6.190884 -10.793189 46.914146 -22.727226 -30.000000 11.419758 27.418255 16.431355 47.053795 120.320038 -60.376747 33.710526 11.260787 -0.433590 -12.238525 -11.998253 11.057122 20.313313 72.221306 7.912604 -1.235363 7.665427 6.073507 -16.746893 0.292277 4.408364 2.449185 17.953592 0.377843 0.701078 -13.146460 -4.395788 21.394125 
-0.096120 43.810833 1.208639 -0.557963 -3.945126 92.050018 0.000000 0.000000 0.000000 -0.097693 -1.582029 6.106212 11.504794 0.695794 0.001349 -11.530483 -2.292377 -16.533182 14.682358 30.000000 14.375587 -53.255672 -17.629942 -27.706207 -105.578720 -30.353043 -27.986710 6.065096 -11.271141 46.954117 -21.257332 -30.000000 11.738039 27.782597 18.391850 46.825573 119.387184 -61.686916 33.058361 11.497199 -1.331818 -12.205786 -14.784240 10.594357 19.863434 70.458076 6.916058 -1.418985 6.988746 6.356449 -16.385479 2.138853 3.906348 2.263136 17.504597 0.377821 0.682149 -13.749269 -4.052912 21.982134 
-0.225068 43.918861 1.249784 0.127274 -4.072256 91.855522 0.000000 0.000000 0.000000 0.175873 -1.855460 6.038914 11.358312 -0.710774 -0.096074 -11.658765 -1.612447 -15.664845 16.828894 30.000000 13.297847 -52.416428 -16.582846 -28.111971 -105.455536 -31.370649 -28.003485 6.030463 -11.782311 46.942120 -19.812660 -30.000000 12.093296 27.931566 20.121475 46.526470 118.457176 -63.086147 32.484600 11.718562 -2.123251 -12.154400 -17.216299 9.716293 19.305241 66.491158 5.609955 -1.562210 5.933631 6.149203 -16.427780 3.886220 3.163699 1.996794 16.761658 0.456201 0.641481 -14.217327 -3.758202 22.555288 
-0.369818 44.015221 1.258495 0.724740 -4.345356 91.760910 0.000000 0.000000 0.000000 0.351790 -2.060508 5.992867 11.090947 -2.009121 -0.187726 -11.604102 -0.888968 -15.102533 18.655554 30.000000 12.462212 -51.503738 -15.650722 -28.537094 -105.398956 -32.294971 -28.173889 6.167725 -12.057228 46.912231 -18.496122 -30.000000 12.465695 27.803045 21.521036 46.167919 117.533264 -64.570969 31.975704 11.931989 -2.748902 -12.103321 -19.059658 8.747329 18.776264 60.864620 4.263387 -1.673002 4.965299 5.864569 -16.736372 5.618557 2.468208 1.770787 15.650642 0.466213 0.536722 -14.510638 -3.572917 23.045767 
-0.517001 44.087139 1.241222 1.097359 -4.647589 91.697685 0.000000 0.000000 0.000000 0.439771 -2.177670 5.959493 10.824312 -2.859678 -0.246758 -11.582734 -0.467456 -14.671895 20.180645 30.000000 11.716978 -51.154415 -14.329378 -28.773790 -105.754562 -33.051624 -28.587034 6.271139 -12.559442 46.890415 -17.002266 -30.000000 13.132498 27.214846 22.399937 45.705673 116.730583 -66.287178 31.551147 12.182130 -3.333823 -12.069288 -20.325134 8.070083 18.418772 54.076557 2.671314 -1.776337 4.116721 5.511298 -17.073139 7.472795 2.039620 1.597271 14.181984 0.356463 0.394172 -14.677643 -3.587798 23.483046 
-0.646447 44.127728 1.174744 0.470108 -4.355323 91.047646 0.000000 0.000000 0.000000 1.093912 -0.986148 6.211474 10.513649 -3.941299 -0.327534 -11.533447 -0.275061 -13.815159 21.366640 30.000000 11.336346 -50.668636 -12.319918 -29.146288 -106.529503 -33.327347 -28.472454 6.135622 -13.038031 46.824398 -15.393057 -30.000000 13.947927 25.978338 23.396614 44.919712 115.188911 -67.951279 29.256357 12.757149 -4.246347 -12.023602 -20.222605 8.728633 18.632656 43.777298 0.868809 -1.681763 4.057039 5.802057 -16.760048 10.323642 3.249841 1.914318 12.087664 -0.997772 -0.094580 -15.317046 -3.959229 21.991722 
-0.686243 44.094536 1.101282 0.332917 -4.179618 90.980949 0.000000 0.000000 0.000000 1.337945 -0.517437 6.306187 10.542202 -4.582222 -0.373535 -11.533206 -0.018337 -13.713981 22.316332 30.000000 10.938375 -50.503338 -11.405952 -29.297239 -106.919006 -33.849285 -28.657106 6.143097 -13.292014 46.810673 -14.711505 -30.000000 14.264735 25.138426 24.522585 44.273697 112.738129 -68.873718 27.208389 12.768145 -4.275181 -11.993605 -18.573513 8.642061 18.804268 34.994041 -1.316377 -1.717269 3.370912 5.179698 -17.211800 13.062258 3.222114 1.865439 10.416454 -1.094927 -0.248852 -15.460097 -3.763640 23.021439 
-0.687951 44.009750 0.995166 -0.058736 -3.984373 90.746262 0.000000 0.000000 0.000000 1.513682 0.214769 6.460790 10.570869 -5.147702 -0.415465 -11.543048 0.155858 -13.436086 23.109152 30.000000 10.645717 -50.281277 -10.460836 -29.486252 -107.409660 -34.366352 -28.881777 6.276562 -13.361650 46.764809 -14.098348 -30.000000 14.573853 24.177145 25.645716 43.554790 109.979889 -69.745667 24.945673 12.635732 -4.134485 -11.992254 -16.703968 8.568775 18.974682 27.091612 -2.764894 -1.571637 2.506305 4.008881 -17.729847 15.661072 3.378579 1.878697 9.244927 -1.221661 -0.358838 -15.969537 -3.598495 23.834856 
